<?xml version="1.0" encoding="UTF-8"?>
<svg width="36px" height="38px" viewBox="0 0 36 38" version="1.1" xmlns="http://www.w3.org/2000/svg" xmlns:xlink="http://www.w3.org/1999/xlink">
    <title>2D0015B9-BA82-43F2-B796-2EC1237C31F6</title>
    <g id="wireframe" stroke="none" stroke-width="1" fill="none" fill-rule="evenodd">
        <g id="mockup/home-yellow" transform="translate(-899.000000, -4631.000000)" fill="#FFDB43" fill-rule="nonzero">
            <g id="footer" transform="translate(0.000000, 4409.000000)">
                <g id="Group-3" transform="translate(605.000000, 219.000000)">
                    <g id="instagram-2" transform="translate(275.363497, 3.181818)">
                        <g id="Linkedin" transform="translate(19.000000, 0.000000)">
                            <g transform="translate(0.392638, 0.696970)" id="Path">
                                <path d="M4.6648773,1.48484848 C2.67406034,1.48484848 1.06019939,3.09932848 1.06019939,5.09090909 C1.06019939,7.08247273 2.67406034,8.6969697 4.6648773,8.6969697 C6.6556773,8.6969697 8.26955521,7.08247273 8.26955521,5.09090909 C8.26955521,3.09932848 6.6556773,1.48484848 4.6648773,1.48484848 Z"></path>
                                <path d="M1.27223926,11.6666667 C1.1551254,11.6666667 1.06019939,11.7616291 1.06019939,11.8787879 L1.06019939,33.9393939 C1.06019939,34.0564848 1.1551254,34.1515152 1.27223926,34.1515152 L8.05751534,34.1515152 C8.1746292,34.1515152 8.26955521,34.0564848 8.26955521,33.9393939 L8.26955521,11.8787879 C8.26955521,11.7616291 8.1746292,11.6666667 8.05751534,11.6666667 L1.27223926,11.6666667 Z"></path>
                                <path d="M12.2983129,11.6666667 C12.181199,11.6666667 12.086273,11.7616291 12.086273,11.8787879 L12.086273,33.9393939 C12.086273,34.0564848 12.181199,34.1515152 12.2983129,34.1515152 L19.083589,34.1515152 C19.200635,34.1515152 19.2956288,34.0564848 19.2956288,33.9393939 L19.2956288,22.0606061 C19.2956288,21.216703 19.6306518,20.4074182 20.2272472,19.8107636 C20.823673,19.2139394 21.6326475,18.8787879 22.476227,18.8787879 C23.3198064,18.8787879 24.128781,19.2139394 24.7252067,19.8107636 C25.3218021,20.4074182 25.6568252,21.216703 25.6568252,22.0606061 L25.6568252,33.9393939 C25.6568252,34.0564848 25.751819,34.1515152 25.868865,34.1515152 L32.6541411,34.1515152 C32.7711871,34.1515152 32.866181,34.0564848 32.866181,33.9393939 L32.866181,19.3118545 C32.866181,15.1938182 29.2859301,11.9721042 25.1899982,12.3446061 C23.926919,12.4594739 22.678089,12.773617 21.5118696,13.2735952 L19.2956288,14.2237624 L19.2956288,11.8787879 C19.2956288,11.7616291 19.200635,11.6666667 19.083589,11.6666667 L12.2983129,11.6666667 Z"></path>
                            </g>
                        </g>
                    </g>
                </g>
            </g>
        </g>
    </g>
</svg>