<?xml version="1.0" encoding="UTF-8"?>
<svg width="47px" height="39px" viewBox="0 0 47 39" version="1.1" xmlns="http://www.w3.org/2000/svg" xmlns:xlink="http://www.w3.org/1999/xlink">
    <title>E99B1579-A8A6-420F-97F5-976A6E62E3B0</title>
    <defs>
        <path d="M40.4403686,9.69207066 C40.4689798,10.0940404 40.4689798,10.4960984 40.4689798,10.8980681 C40.4689798,23.1586743 31.1740422,37.2857703 14.1856012,37.2857703 C8.95177925,37.2857703 4.08981464,35.763889 -1.12684014e-07,33.1223611 C0.74362658,33.208447 1.45855405,33.2371717 2.23079193,33.2371717 C6.5493201,33.2371717 10.5247782,31.7728283 13.6993872,29.2747475 C9.63818359,29.1885733 6.23477314,26.5182324 5.06215476,22.8428789 C5.63420236,22.9289646 6.20616196,22.9864143 6.80682077,22.9864143 C7.63619297,22.9864143 8.46565323,22.8715152 9.23780307,22.6706186 C5.00502041,21.8091415 1.83032339,18.0764268 1.83032339,13.5684091 L1.83032339,13.4535985 C3.06007612,14.1427273 4.49019516,14.5734217 6.00588367,14.6307828 C3.51767899,12.9653661 1.88754575,10.1227651 1.88754575,6.90683075 C1.88754575,5.18405297 2.3450606,3.60481052 3.14590965,2.22655296 C7.6933273,7.85439389 14.5287594,11.5296591 22.1934756,11.9317171 C22.0505077,11.2425883 21.9646742,10.5248232 21.9646742,9.80696965 C21.9646742,4.69590902 26.0831001,0.532499907 31.2024773,0.532499907 C33.862261,0.532499907 36.2646322,1.65232314 37.9520758,3.46127517 C40.039812,3.05930547 42.0418026,2.28400244 43.8150797,1.2216287 C43.1285875,3.37518932 41.6700333,5.18414135 39.7538762,6.33260095 C41.6128989,6.13170447 43.4146993,5.61474741 45.0734436,4.89698226 C43.8152559,6.73457065 42.242169,8.37117418 40.4403686,9.69207066 Z" id="path-1"></path>
    </defs>
    <g id="wireframe" stroke="none" stroke-width="1" fill="none" fill-rule="evenodd">
        <g id="mockup/home-yellow" transform="translate(-1020.000000, -4631.000000)">
            <g id="footer" transform="translate(0.000000, 4409.000000)">
                <g id="Group-3" transform="translate(605.000000, 219.000000)">
                    <g id="twitter-2" transform="translate(407.363497, 3.636364)">
                        <g id="twitter" transform="translate(8.000000, 0.000000)">
                            <mask id="mask-2" fill="white">
                                <use xlink:href="#path-1"></use>
                            </mask>
                            <use id="path-1" fill="#FFDB43" xlink:href="#path-1"></use>
                        </g>
                    </g>
                </g>
            </g>
        </g>
    </g>
</svg>