<?xml version="1.0" encoding="UTF-8"?>
<svg width="45px" height="30px" viewBox="0 0 45 30" version="1.1" xmlns="http://www.w3.org/2000/svg" xmlns:xlink="http://www.w3.org/1999/xlink">
    <title>FFC73EEA-9C98-4E1E-A94A-EC14A95F0568</title>
    <defs>
        <path d="M42.2850555,4.67743321 C41.7935496,2.84310781 40.3454031,1.39845051 38.5066967,0.908185355 C35.1739096,0.0173159429 21.809816,0.0173159429 21.809816,0.0173159429 C21.809816,0.0173159429 8.44580068,0.0173159429 5.11293516,0.908185355 C3.27422883,1.39852807 1.82608228,2.84310781 1.33457636,4.67743321 C0.441555268,8.00225466 0.441555268,14.9391847 0.441555268,14.9391847 C0.441555268,14.9391847 0.441555268,21.8761146 1.33457636,25.2009363 C1.82608228,27.0352616 3.27422883,28.4197313 5.11293516,28.9099966 C8.44580068,29.8008659 21.809816,29.8008659 21.809816,29.8008659 C21.809816,29.8008659 35.1738311,29.8008659 38.5066967,28.9099966 C40.3454031,28.4197313 41.7935496,27.0352616 42.2850555,25.2009363 C43.1780766,21.8761146 43.1780766,14.9391847 43.1780766,14.9391847 C43.1780766,14.9391847 43.1780766,8.00225466 42.2850555,4.67743321 Z M17.4390051,21.2373972 L17.4390051,8.6409722 L28.6087334,14.9393398 L17.4390051,21.2373972 Z" id="path-1"></path>
    </defs>
    <g id="wireframe" stroke="none" stroke-width="1" fill="none" fill-rule="evenodd">
        <g id="mockup/home-yellow" transform="translate(-622.000000, -4636.000000)">
            <g id="footer" transform="translate(0.000000, 4409.000000)">
                <g id="Group-3" transform="translate(605.000000, 219.000000)">
                    <g id="youtube-white-2" transform="translate(0.363497, 8.000000)">
                        <g id="youtube-white" transform="translate(17.000000, 0.000000)">
                            <mask id="mask-2" fill="white">
                                <use xlink:href="#path-1"></use>
                            </mask>
                            <use id="path-1" fill="#FFDB43" xlink:href="#path-1"></use>
                        </g>
                    </g>
                </g>
            </g>
        </g>
    </g>
</svg>